<?xml version="1.0" standalone="no"?>
<!DOCTYPE svg PUBLIC "-//W3C//DTD SVG 20010904//EN"
 "http://www.w3.org/TR/2001/REC-SVG-20010904/DTD/svg10.dtd">
<svg version="1.0" xmlns="http://www.w3.org/2000/svg"
 width="700.000000pt" height="596.000000pt" viewBox="0 0 700.000000 596.000000"
 preserveAspectRatio="xMidYMid meet">
<metadata>
Created by potrace 1.15, written by Peter Selinger 2001-2017
</metadata>
<g transform="translate(0.000000,596.000000) scale(0.100000,-0.100000)"
fill="#000000" stroke="none">
<path d="M3494 5808 c-15 -23 -37 -65 -49 -93 -13 -27 -32 -59 -44 -69 -11
-11 -21 -24 -21 -30 0 -6 -17 -36 -38 -66 -21 -30 -60 -98 -87 -150 -26 -52
-66 -115 -87 -140 -22 -25 -56 -77 -75 -117 -19 -40 -42 -78 -49 -84 -8 -6
-14 -20 -14 -30 0 -9 -7 -24 -15 -33 -33 -32 -81 -103 -94 -136 -8 -19 -24
-46 -37 -60 -24 -27 -85 -128 -88 -145 -1 -6 -24 -40 -51 -75 -55 -71 -55 -71
-105 -166 -19 -37 -52 -85 -72 -106 -21 -22 -38 -48 -38 -59 0 -25 -23 -71
-45 -89 -9 -7 -23 -30 -31 -49 -8 -20 -27 -49 -42 -66 -15 -16 -38 -50 -52
-75 -13 -25 -32 -56 -42 -69 -10 -13 -18 -28 -18 -34 0 -6 -7 -17 -15 -26 -41
-43 -105 -141 -105 -161 0 -12 -11 -35 -25 -52 -14 -16 -25 -36 -25 -45 0 -14
-67 -124 -111 -183 -11 -14 -24 -36 -30 -50 -6 -14 -21 -39 -34 -56 -13 -17
-27 -44 -31 -60 -4 -16 -31 -65 -60 -110 -30 -44 -54 -86 -54 -93 0 -11 -37
-70 -52 -81 -3 -3 -17 -30 -31 -60 -13 -30 -40 -75 -60 -98 -21 -24 -37 -51
-37 -59 0 -8 -14 -28 -31 -44 -16 -15 -32 -41 -35 -56 -3 -15 -21 -46 -40 -70
-19 -23 -40 -55 -47 -71 -7 -16 -27 -41 -44 -56 -18 -15 -33 -33 -33 -40 0 -7
-11 -28 -25 -47 -16 -21 -24 -42 -21 -55 4 -14 -3 -29 -23 -48 -15 -15 -34
-46 -41 -69 -8 -23 -31 -61 -52 -84 -21 -24 -38 -50 -38 -59 0 -10 -6 -25 -14
-33 -8 -9 -24 -41 -37 -71 -12 -30 -28 -62 -35 -70 -7 -8 -26 -43 -43 -77 -17
-34 -36 -65 -41 -68 -17 -10 -60 -83 -60 -100 0 -8 -4 -15 -9 -15 -5 0 -25
-33 -44 -73 -19 -40 -46 -87 -61 -104 -14 -17 -26 -38 -26 -46 0 -9 -4 -18 -9
-22 -5 -3 -39 -65 -74 -138 -36 -72 -74 -137 -84 -143 -10 -7 -40 -55 -67
-108 -26 -52 -51 -98 -57 -101 -5 -4 -9 -17 -9 -29 0 -13 -9 -35 -20 -49 -11
-14 -20 -32 -20 -39 0 -8 -11 -25 -25 -38 -14 -13 -25 -32 -25 -43 0 -10 -24
-56 -54 -100 -30 -45 -60 -101 -67 -125 -7 -24 -27 -58 -43 -75 -44 -45 -88
-132 -84 -165 3 -25 6 -27 48 -26 25 1 101 6 169 12 106 9 129 9 160 -4 29
-13 57 -14 141 -8 58 4 125 7 150 6 25 -1 122 -1 215 1 160 2 227 1 335 -2
151 -4 375 0 435 7 51 7 87 5 135 -5 51 -11 106 -13 250 -7 102 4 194 6 205 5
11 -1 74 -2 140 -2 66 0 146 -6 180 -14 41 -10 99 -13 180 -10 66 3 220 0 342
-5 191 -8 228 -7 259 6 30 13 48 13 109 4 40 -6 90 -10 111 -9 22 1 75 -2 119
-6 49 -5 109 -3 150 3 81 13 166 14 545 7 283 -6 458 -6 1120 0 368 3 473 9
567 34 31 8 56 8 90 0 27 -5 82 -10 123 -9 41 0 142 -4 225 -9 129 -9 152 -8
173 5 47 31 41 74 -18 138 -22 24 -40 48 -40 53 0 6 -13 27 -30 48 -16 21 -30
45 -30 53 0 16 -39 99 -70 147 -30 47 -50 87 -50 99 0 6 -14 19 -30 28 -17 9
-35 30 -41 45 -5 15 -21 51 -35 80 -13 28 -24 58 -24 66 0 8 -8 25 -18 38 -10
13 -23 35 -30 49 -7 14 -30 52 -52 85 -60 91 -90 146 -97 174 -6 28 -52 101
-87 139 -20 23 -56 88 -112 202 -15 30 -38 69 -51 86 -13 18 -44 73 -68 123
-24 50 -48 91 -53 91 -5 0 -15 13 -22 29 -6 16 -25 41 -41 57 -16 15 -29 38
-29 50 0 14 -13 33 -35 50 -23 17 -35 35 -35 50 0 28 -65 167 -86 185 -8 6
-14 17 -14 24 0 15 -33 89 -52 119 -7 11 -32 49 -56 84 -51 77 -77 126 -86
167 -4 17 -20 47 -37 67 -16 20 -29 42 -29 48 0 6 -11 26 -25 44 -14 18 -25
38 -25 43 0 6 -7 16 -16 24 -20 16 -54 83 -54 106 0 10 -17 34 -38 53 -21 21
-56 74 -81 125 -24 50 -56 104 -71 120 -15 17 -30 43 -34 59 -9 39 -44 83 -83
106 -18 11 -33 25 -33 32 0 34 -24 92 -51 122 -16 19 -29 38 -29 43 0 5 -13
22 -30 38 -16 16 -30 36 -30 45 0 9 -11 27 -25 40 -14 13 -25 31 -25 41 0 9
-7 22 -15 29 -8 7 -15 17 -15 22 0 6 -18 32 -40 58 -22 27 -50 70 -62 96 -11
27 -27 55 -35 63 -8 7 -22 26 -31 40 -9 14 -24 32 -34 39 -9 6 -20 27 -23 45
-4 17 -14 41 -21 52 -8 11 -14 27 -14 37 0 9 -13 32 -29 50 -15 18 -31 43 -35
56 -4 12 -11 22 -16 22 -4 0 -15 18 -23 39 -9 22 -21 42 -27 46 -5 3 -10 12
-10 20 0 7 -17 32 -37 55 -21 23 -53 69 -71 103 -18 33 -46 76 -61 96 -16 20
-38 54 -50 76 -12 22 -35 60 -51 85 -52 82 -80 132 -80 147 0 8 -16 29 -35 46
-19 17 -35 35 -35 41 0 5 -8 18 -17 28 -9 10 -24 41 -34 69 -10 27 -30 64 -44
82 -43 53 -125 184 -125 199 0 8 -8 22 -18 32 -11 9 -32 48 -48 88 -23 59 -34
73 -61 84 -18 8 -35 14 -38 14 -2 0 -17 -19 -31 -42z m115 -366 c16 -32 36
-64 45 -71 9 -8 16 -20 16 -27 0 -8 22 -42 49 -77 26 -34 51 -77 54 -95 4 -18
29 -66 57 -106 27 -40 57 -92 65 -117 9 -25 37 -72 63 -104 56 -69 76 -102
128 -204 21 -40 51 -87 66 -103 15 -16 33 -41 41 -56 8 -15 30 -58 50 -95 21
-38 37 -77 37 -86 0 -10 11 -28 24 -40 14 -13 30 -35 36 -51 6 -15 22 -33 35
-40 13 -7 26 -20 29 -29 3 -9 23 -47 45 -86 22 -38 49 -87 60 -107 11 -20 29
-43 39 -50 17 -13 46 -63 105 -183 16 -33 33 -67 38 -75 5 -8 18 -35 30 -60
25 -56 99 -166 150 -224 27 -30 39 -53 39 -74 0 -16 6 -35 14 -41 8 -7 24 -32
35 -57 12 -24 25 -44 31 -44 5 0 24 -13 42 -28 18 -16 41 -32 51 -35 16 -6 16
-10 4 -40 -16 -37 -10 -61 27 -110 13 -18 36 -57 50 -89 15 -31 38 -63 51 -72
14 -9 28 -29 31 -44 9 -39 101 -208 134 -246 15 -17 30 -43 34 -58 3 -16 11
-28 16 -28 6 0 10 -6 10 -14 0 -7 18 -40 40 -72 22 -33 40 -64 40 -70 0 -6 15
-31 34 -55 18 -24 47 -70 64 -102 17 -32 54 -83 82 -114 65 -71 84 -107 70
-132 -21 -41 -11 -65 54 -130 36 -36 66 -75 69 -90 12 -61 18 -75 67 -136 28
-35 61 -87 74 -117 13 -30 31 -59 39 -66 8 -7 24 -34 36 -61 11 -27 27 -51 35
-54 8 -3 24 -24 36 -47 11 -22 25 -40 30 -40 5 0 12 -10 15 -21 4 -12 23 -42
42 -67 18 -24 54 -87 80 -139 30 -62 63 -113 97 -147 33 -35 55 -69 64 -98 7
-24 31 -71 53 -103 52 -77 52 -117 -1 -127 -149 -29 -842 -50 -1365 -40 -44 0
-219 -2 -390 -6 -515 -11 -1156 -7 -1182 7 -18 9 -28 9 -44 0 -16 -8 -109 -9
-333 -5 -257 4 -475 6 -556 5 -8 -1 -159 1 -335 4 -204 3 -336 1 -363 -5 -32
-8 -54 -7 -85 2 -31 9 -174 12 -562 11 -286 0 -560 -3 -610 -7 -92 -6 -157 7
-212 42 -19 12 -20 17 -10 51 7 21 22 54 34 73 12 19 31 66 43 104 12 37 35
82 50 100 35 39 70 112 70 144 0 16 20 46 59 88 33 34 62 71 65 81 2 10 10 36
15 59 6 22 28 59 48 81 78 84 112 146 99 179 -4 10 9 33 36 64 24 26 61 82 82
124 21 41 47 83 57 92 11 10 19 27 19 38 0 23 11 42 72 122 21 28 38 55 38 59
0 4 11 22 24 40 13 17 44 69 68 116 25 46 58 109 75 139 16 30 33 68 37 84 4
16 18 43 32 59 13 16 24 37 24 47 0 10 33 55 74 99 41 45 77 89 80 99 3 9 12
43 21 74 13 45 25 64 56 89 44 35 72 80 63 103 -7 18 24 72 96 166 27 36 62
85 77 110 14 25 44 66 65 91 21 26 38 55 38 66 0 10 11 35 25 55 14 20 25 44
25 53 0 24 28 74 69 124 47 59 81 110 81 121 0 6 12 34 27 62 15 29 31 62 36
73 19 39 32 60 49 80 9 11 26 46 38 77 11 31 30 68 41 82 51 64 92 134 96 164
3 18 14 39 24 46 11 7 24 27 30 45 6 18 24 38 40 46 16 9 34 25 40 38 7 12 27
39 45 60 19 20 34 44 34 52 0 7 6 18 14 22 7 4 23 26 35 48 34 63 84 136 119
174 12 13 22 31 22 40 0 9 11 37 24 64 14 26 27 60 31 75 3 15 19 40 35 56 17
15 30 33 30 41 0 7 17 34 38 61 37 49 50 69 97 157 15 27 46 73 71 103 24 30
44 59 44 65 0 6 14 22 30 36 34 28 60 72 60 101 0 28 20 42 62 42 36 0 39 -3
67 -58z"/>
</g>
</svg>
