<?xml version="1.0" standalone="no"?>
<!DOCTYPE svg PUBLIC "-//W3C//DTD SVG 20010904//EN"
 "http://www.w3.org/TR/2001/REC-SVG-20010904/DTD/svg10.dtd">
<svg version="1.0" xmlns="http://www.w3.org/2000/svg"
 width="768.000000pt" height="768.000000pt" viewBox="0 0 768.000000 768.000000"
 preserveAspectRatio="xMidYMid meet">
<metadata>
Created by potrace 1.15, written by Peter Selinger 2001-2017
</metadata>
<g transform="translate(0.000000,768.000000) scale(0.100000,-0.100000)"
fill="#000000" stroke="none">
<path d="M3377 7660 c-620 -84 -1182 -296 -1682 -634 -960 -649 -1559 -1647
-1681 -2799 -23 -216 -15 -704 14 -897 32 -209 59 -342 104 -505 284 -1043
979 -1904 1943 -2406 408 -212 864 -349 1345 -404 211 -25 779 -17 965 13 739
118 1328 376 1895 830 138 111 452 428 562 567 447 566 707 1184 815 1935 26
183 26 811 0 985 -67 445 -160 762 -330 1129 -360 774 -983 1409 -1767 1801
-377 189 -743 304 -1195 377 -111 18 -183 21 -490 24 -308 3 -380 0 -498 -16z
m729 -80 c569 -44 1106 -206 1584 -478 806 -458 1417 -1200 1703 -2067 130
-395 191 -774 191 -1195 0 -249 -10 -370 -50 -620 -214 -1339 -1144 -2449
-2449 -2921 -259 -94 -643 -174 -960 -200 -275 -23 -633 -4 -955 51 -861 145
-1684 643 -2261 1365 -444 556 -718 1226 -800 1955 -17 148 -17 583 -1 724 35
298 101 601 180 836 259 759 718 1384 1361 1850 530 383 1176 629 1816 690 61
5 126 12 145 13 82 8 377 6 496 -3z"/>
<path d="M3802 7535 c-18 -8 -37 -26 -42 -40 -14 -37 -13 -527 1 -558 23 -51
104 -63 144 -22 l25 24 0 281 c0 267 -1 281 -20 300 -11 11 -26 20 -34 20 -8
0 -20 2 -28 5 -7 2 -28 -2 -46 -10z"/>
<path d="M1969 7031 c-32 -32 -36 -62 -16 -101 98 -185 238 -425 259 -442 58
-50 166 21 143 94 -11 35 -235 430 -258 456 -31 34 -90 30 -128 -7z"/>
<path d="M5597 7049 c-9 -6 -35 -45 -57 -87 -22 -42 -58 -111 -81 -152 -98
-178 -129 -242 -129 -266 0 -41 50 -84 98 -84 44 0 57 11 95 80 234 427 242
447 191 495 -29 27 -84 33 -117 14z"/>
<path d="M2452 6243 c-7 -2 -17 -14 -23 -24 -12 -24 -22 -4 281 -529 120 -206
252 -436 295 -510 43 -74 118 -205 168 -290 49 -85 97 -169 107 -186 10 -16
51 -88 92 -160 215 -372 274 -472 294 -508 l22 -38 -29 -55 c-16 -31 -29 -71
-29 -90 0 -194 225 -300 371 -175 103 88 106 241 6 329 -19 17 -51 36 -71 43
l-36 12 0 848 c0 758 -2 850 -16 864 -19 20 -58 21 -73 3 -8 -10 -12 -257 -13
-867 -2 -612 -6 -854 -14 -857 -6 -2 -35 38 -64 89 -30 51 -151 262 -270 468
-120 206 -311 537 -425 735 -114 198 -233 403 -263 455 -30 52 -97 169 -150
260 -108 188 -118 200 -160 183z"/>
<path d="M649 5711 c-34 -34 -39 -87 -11 -120 27 -33 466 -271 500 -271 50 0
99 65 86 115 -8 32 -36 55 -129 105 -44 24 -93 51 -110 60 -16 9 -80 44 -141
78 -61 34 -123 62 -138 62 -17 0 -39 -11 -57 -29z"/>
<path d="M6720 5604 c-124 -75 -231 -143 -237 -152 -21 -27 -16 -88 11 -118
42 -49 69 -41 281 85 251 150 262 157 281 186 14 22 15 32 5 65 -14 46 -44 70
-86 69 -20 0 -103 -44 -255 -135z"/>
<path d="M165 3906 c-35 -35 -35 -97 0 -131 l24 -25 276 0 276 0 24 25 c31 30
34 92 6 126 l-19 24 -281 3 -281 3 -25 -25z"/>
<path d="M6915 3905 c-38 -37 -37 -98 1 -132 25 -23 29 -23 302 -23 309 0 316
1 328 65 8 45 -12 94 -43 106 -13 5 -146 9 -294 9 l-270 0 -24 -25z"/>
<path d="M870 2235 c-124 -74 -231 -143 -237 -152 -21 -28 -15 -79 13 -112 45
-53 67 -46 306 95 243 144 273 169 264 222 -3 19 -15 45 -27 58 -43 46 -73 36
-319 -111z"/>
<path d="M6519 2345 c-62 -33 -62 -120 -1 -159 124 -79 433 -246 456 -246 38
0 63 16 81 50 22 42 19 68 -12 99 -36 34 -454 271 -479 271 -10 -1 -31 -7 -45
-15z"/>
<path d="M5393 1223 c-38 -7 -73 -49 -73 -85 1 -49 255 -498 293 -516 34 -17
89 -1 112 31 28 41 18 79 -55 208 -38 67 -70 123 -70 124 0 10 -115 204 -128
216 -20 20 -49 28 -79 22z"/>
<path d="M2244 1199 c-11 -6 -55 -67 -99 -137 -229 -369 -228 -367 -179 -416
35 -35 101 -37 131 -3 12 12 80 117 152 234 129 208 143 240 125 288 -14 36
-86 55 -130 34z"/>
<path d="M3802 785 c-18 -8 -37 -26 -42 -40 -6 -15 -10 -140 -10 -289 0 -250
1 -265 20 -289 27 -34 78 -44 118 -23 16 8 32 23 36 31 3 9 6 141 6 294 0 275
0 278 -22 298 -32 28 -67 34 -106 18z"/>
</g>
</svg>
